<?xml version="1.0" encoding="UTF-8" standalone="no"?>
<svg width="640px" height="128px" viewBox="0 0 640 128" version="1.1" xmlns="http://www.w3.org/2000/svg" xmlns:xlink="http://www.w3.org/1999/xlink">
    <!-- Generator: Sketch 41.2 (35397) - http://www.bohemiancoding.com/sketch -->
    <title>icon-with-text</title>
    <desc>Created with Sketch.</desc>
    <defs></defs>
    <g id="Logo" stroke="none" stroke-width="1" fill="none" fill-rule="evenodd">
        <g id="icon-with-text">
            <path d="M180.696289,55.4980469 C181.851894,55.4980469 182.804033,55.5794263 183.552734,55.7421875 L182.991211,61.0888672 C182.177405,60.8935537 181.331059,60.7958984 180.452148,60.7958984 C178.157215,60.7958984 176.297696,61.5445889 174.873535,63.0419922 C173.449374,64.5393955 172.737305,66.484363 172.737305,68.8769531 L172.737305,82.9882812 L167,82.9882812 L167,55.9863281 L171.492188,55.9863281 L172.249023,60.7470703 L172.541992,60.7470703 C173.437179,59.1357341 174.604973,57.8580776 176.04541,56.9140625 C177.485847,55.9700474 179.036125,55.4980469 180.696289,55.4980469 Z M199.348633,83.4765625 C195.149393,83.4765625 191.865734,82.2518026 189.497559,79.8022461 C187.129383,77.3526896 185.945312,73.9795137 185.945312,69.6826172 C185.945312,65.2717878 187.043934,61.8050256 189.241211,59.2822266 C191.438488,56.7594275 194.457663,55.4980469 198.298828,55.4980469 C201.863299,55.4980469 204.679026,56.5803928 206.746094,58.7451172 C208.813161,60.9098416 209.84668,63.8883274 209.84668,67.6806641 L209.84668,70.78125 L191.853516,70.78125 C191.934896,73.4017058 192.642897,75.4158458 193.977539,76.8237305 C195.312181,78.2316151 197.192045,78.9355469 199.617188,78.9355469 C201.212248,78.9355469 202.697422,78.784995 204.072754,78.4838867 C205.448086,78.1827784 206.925122,77.6822952 208.503906,76.9824219 L208.503906,81.6455078 C207.10416,82.3128289 205.688158,82.7848293 204.255859,83.0615234 C202.823561,83.3382175 201.187835,83.4765625 199.348633,83.4765625 Z M198.298828,59.84375 C196.475902,59.84375 195.015142,60.4215437 193.916504,61.5771484 C192.817866,62.7327532 192.162761,64.4173066 191.951172,66.6308594 L204.207031,66.6308594 C204.174479,64.4010305 203.637375,62.7124081 202.595703,61.5649414 C201.554031,60.4174747 200.121754,59.84375 198.298828,59.84375 Z M225.47168,83.4765625 C222.102522,83.4765625 219.473968,82.2558716 217.585938,79.8144531 C215.697907,77.3730347 214.753906,73.9469622 214.753906,69.5361328 C214.753906,65.1090273 215.710114,61.66261 217.622559,59.1967773 C219.535003,56.7309447 222.183902,55.4980469 225.569336,55.4980469 C229.117531,55.4980469 231.819327,56.8082551 233.674805,59.4287109 L233.967773,59.4287109 C233.691079,57.4918523 233.552734,55.9619197 233.552734,54.8388672 L233.552734,45 L239.314453,45 L239.314453,82.9882812 L234.822266,82.9882812 L233.821289,79.4482422 L233.552734,79.4482422 C231.713532,82.1338025 229.019875,83.4765625 225.47168,83.4765625 Z M227.009766,78.8378906 C229.369803,78.8378906 231.086909,78.1746486 232.161133,76.8481445 C233.235357,75.5216405 233.788737,73.3691555 233.821289,70.390625 L233.821289,69.5849609 C233.821289,66.1832512 233.267909,63.7662832 232.161133,62.3339844 C231.054356,60.9016855 229.320975,60.1855469 226.960938,60.1855469 C224.942698,60.1855469 223.388352,61.0034098 222.297852,62.6391602 C221.207351,64.2749105 220.662109,66.6064302 220.662109,69.6337891 C220.662109,72.6285957 221.191075,74.9112877 222.249023,76.4819336 C223.306971,78.0525795 224.89387,78.8378906 227.009766,78.8378906 Z M266.560547,82.9882812 L265.754883,79.4482422 L265.461914,79.4482422 C264.664384,80.7015037 263.529141,81.6861943 262.056152,82.4023438 C260.583163,83.1184932 258.902679,83.4765625 257.014648,83.4765625 C253.743148,83.4765625 251.301766,82.6627686 249.69043,81.0351562 C248.079094,79.4075439 247.273438,76.9417483 247.273438,73.6376953 L247.273438,55.9863281 L253.05957,55.9863281 L253.05957,72.6367188 C253.05957,74.7037864 253.482743,76.2540638 254.329102,77.2875977 C255.17546,78.3211315 256.501944,78.8378906 258.308594,78.8378906 C260.71746,78.8378906 262.487462,78.117683 263.618652,76.6772461 C264.749843,75.2368092 265.31543,72.8239102 265.31543,69.4384766 L265.31543,55.9863281 L271.077148,55.9863281 L271.077148,82.9882812 L266.560547,82.9882812 Z M285.261719,69.1943359 L276.204102,55.9863281 L282.74707,55.9863281 L288.899414,65.4345703 L295.100586,55.9863281 L301.594727,55.9863281 L292.512695,69.1943359 L302.058594,82.9882812 L295.564453,82.9882812 L288.899414,72.8808594 L282.258789,82.9882812 L275.764648,82.9882812 L285.261719,69.1943359 Z M304.451172,72.0263672 L304.451172,67.1435547 L317,67.1435547 L317,72.0263672 L304.451172,72.0263672 Z M328.621094,82.9882812 L322.883789,82.9882812 L322.883789,55.9863281 L328.621094,55.9863281 L328.621094,82.9882812 Z M322.541992,48.8330078 C322.541992,47.8076121 322.822751,47.0182319 323.384277,46.4648438 C323.945804,45.9114556 324.747391,45.6347656 325.789062,45.6347656 C326.798182,45.6347656 327.583493,45.9114556 328.14502,46.4648438 C328.706546,47.0182319 328.987305,47.8076121 328.987305,48.8330078 C328.987305,49.8095752 328.706546,50.5786105 328.14502,51.1401367 C327.583493,51.701663 326.798182,51.9824219 325.789062,51.9824219 C324.747391,51.9824219 323.945804,51.701663 323.384277,51.1401367 C322.822751,50.5786105 322.541992,49.8095752 322.541992,48.8330078 Z M360.579102,82.9882812 L354.817383,82.9882812 L354.817383,66.3867188 C354.817383,64.303375 354.398279,62.7490286 353.560059,61.7236328 C352.721838,60.6982371 351.391285,60.1855469 349.568359,60.1855469 C347.143217,60.1855469 345.369146,60.9016855 344.246094,62.3339844 C343.123041,63.7662832 342.561523,66.1669753 342.561523,69.5361328 L342.561523,82.9882812 L336.824219,82.9882812 L336.824219,55.9863281 L341.316406,55.9863281 L342.12207,59.5263672 L342.415039,59.5263672 C343.228845,58.2405535 344.384433,57.2477249 345.881836,56.5478516 C347.379239,55.8479783 349.039379,55.4980469 350.862305,55.4980469 C357.340202,55.4980469 360.579102,58.7939124 360.579102,65.3857422 L360.579102,82.9882812 Z M378.621094,78.8378906 C380.02084,78.8378906 381.420566,78.6181663 382.820312,78.1787109 L382.820312,82.5 C382.185544,82.7766941 381.367681,83.0086254 380.366699,83.1958008 C379.365718,83.3829762 378.32813,83.4765625 377.253906,83.4765625 C371.817681,83.4765625 369.099609,80.6120078 369.099609,74.8828125 L369.099609,60.3320312 L365.413086,60.3320312 L365.413086,57.7929688 L369.368164,55.6933594 L371.321289,49.9804688 L374.861328,49.9804688 L374.861328,55.9863281 L382.551758,55.9863281 L382.551758,60.3320312 L374.861328,60.3320312 L374.861328,74.7851562 C374.861328,76.1686267 375.207191,77.1899381 375.898926,77.8491211 C376.590661,78.5083041 377.498041,78.8378906 378.621094,78.8378906 Z M393.953125,82.9882812 L388.21582,82.9882812 L388.21582,45 L393.953125,45 L393.953125,82.9882812 Z M399.8125,72.0263672 L399.8125,67.1435547 L412.361328,67.1435547 L412.361328,72.0263672 L399.8125,72.0263672 Z M429.133789,83.4765625 C425.048482,83.4765625 421.943858,82.2843544 419.819824,79.8999023 C417.69579,77.5154503 416.633789,74.0934468 416.633789,69.6337891 C416.633789,65.0927507 417.744618,61.6015747 419.966309,59.1601562 C422.187999,56.7187378 425.398417,55.4980469 429.597656,55.4980469 C432.445978,55.4980469 435.009429,56.0270129 437.288086,57.0849609 L435.554688,61.6992188 C433.129545,60.7552036 431.127612,60.2832031 429.548828,60.2832031 C424.877581,60.2832031 422.541992,63.3837581 422.541992,69.5849609 C422.541992,72.6123198 423.123855,74.8868739 424.287598,76.4086914 C425.45134,77.9305089 427.156239,78.6914062 429.402344,78.6914062 C431.957695,78.6914062 434.374663,78.056647 436.65332,76.7871094 L436.65332,81.7919922 C435.627925,82.3942087 434.533372,82.8255195 433.369629,83.0859375 C432.205886,83.3463555 430.793954,83.4765625 429.133789,83.4765625 Z M466.951172,69.4384766 C466.951172,73.8493059 465.819998,77.2916543 463.557617,79.765625 C461.295236,82.2395957 458.145854,83.4765625 454.109375,83.4765625 C451.586576,83.4765625 449.356781,82.9069067 447.419922,81.7675781 C445.483063,80.6282495 443.99382,78.9925237 442.952148,76.8603516 C441.910477,74.7281794 441.389648,72.2542458 441.389648,69.4384766 C441.389648,65.0601995 442.512684,61.6422649 444.758789,59.1845703 C447.004894,56.7268757 450.170552,55.4980469 454.255859,55.4980469 C458.162129,55.4980469 461.254546,56.7553585 463.533203,59.2700195 C465.81186,61.7846805 466.951172,65.1741323 466.951172,69.4384766 Z M447.297852,69.4384766 C447.297852,75.6722317 449.600888,78.7890625 454.207031,78.7890625 C458.764346,78.7890625 461.042969,75.6722317 461.042969,69.4384766 C461.042969,63.2698259 458.74807,60.1855469 454.158203,60.1855469 C451.749337,60.1855469 450.003749,60.9830649 448.921387,62.578125 C447.839025,64.1731851 447.297852,66.459946 447.297852,69.4384766 Z M497.297852,82.9882812 L491.536133,82.9882812 L491.536133,66.3867188 C491.536133,64.303375 491.117029,62.7490286 490.278809,61.7236328 C489.440588,60.6982371 488.110035,60.1855469 486.287109,60.1855469 C483.861967,60.1855469 482.087896,60.9016855 480.964844,62.3339844 C479.841791,63.7662832 479.280273,66.1669753 479.280273,69.5361328 L479.280273,82.9882812 L473.542969,82.9882812 L473.542969,55.9863281 L478.035156,55.9863281 L478.84082,59.5263672 L479.133789,59.5263672 C479.947595,58.2405535 481.103183,57.2477249 482.600586,56.5478516 C484.097989,55.8479783 485.758129,55.4980469 487.581055,55.4980469 C494.058952,55.4980469 497.297852,58.7939124 497.297852,65.3857422 L497.297852,82.9882812 Z M529.036133,82.9882812 L523.274414,82.9882812 L523.274414,66.3867188 C523.274414,64.303375 522.85531,62.7490286 522.01709,61.7236328 C521.17887,60.6982371 519.848316,60.1855469 518.025391,60.1855469 C515.600248,60.1855469 513.826177,60.9016855 512.703125,62.3339844 C511.580073,63.7662832 511.018555,66.1669753 511.018555,69.5361328 L511.018555,82.9882812 L505.28125,82.9882812 L505.28125,55.9863281 L509.773438,55.9863281 L510.579102,59.5263672 L510.87207,59.5263672 C511.685876,58.2405535 512.841464,57.2477249 514.338867,56.5478516 C515.836271,55.8479783 517.49641,55.4980469 519.319336,55.4980469 C525.797233,55.4980469 529.036133,58.7939124 529.036133,65.3857422 L529.036133,82.9882812 Z M548.811523,83.4765625 C544.612284,83.4765625 541.328625,82.2518026 538.960449,79.8022461 C536.592273,77.3526896 535.408203,73.9795137 535.408203,69.6826172 C535.408203,65.2717878 536.506825,61.8050256 538.704102,59.2822266 C540.901378,56.7594275 543.920554,55.4980469 547.761719,55.4980469 C551.32619,55.4980469 554.141917,56.5803928 556.208984,58.7451172 C558.276052,60.9098416 559.30957,63.8883274 559.30957,67.6806641 L559.30957,70.78125 L541.316406,70.78125 C541.397787,73.4017058 542.105788,75.4158458 543.44043,76.8237305 C544.775072,78.2316151 546.654936,78.9355469 549.080078,78.9355469 C550.675138,78.9355469 552.160312,78.784995 553.535645,78.4838867 C554.910977,78.1827784 556.388013,77.6822952 557.966797,76.9824219 L557.966797,81.6455078 C556.56705,82.3128289 555.151049,82.7848293 553.71875,83.0615234 C552.286451,83.3382175 550.650725,83.4765625 548.811523,83.4765625 Z M547.761719,59.84375 C545.938793,59.84375 544.478033,60.4215437 543.379395,61.5771484 C542.280756,62.7327532 541.625652,64.4173066 541.414062,66.6308594 L553.669922,66.6308594 C553.63737,64.4010305 553.100266,62.7124081 552.058594,61.5649414 C551.016922,60.4174747 549.584645,59.84375 547.761719,59.84375 Z M576.716797,83.4765625 C572.63149,83.4765625 569.526866,82.2843544 567.402832,79.8999023 C565.278798,77.5154503 564.216797,74.0934468 564.216797,69.6337891 C564.216797,65.0927507 565.327626,61.6015747 567.549316,59.1601562 C569.771007,56.7187378 572.981424,55.4980469 577.180664,55.4980469 C580.028986,55.4980469 582.592437,56.0270129 584.871094,57.0849609 L583.137695,61.6992188 C580.712553,60.7552036 578.71062,60.2832031 577.131836,60.2832031 C572.460589,60.2832031 570.125,63.3837581 570.125,69.5849609 C570.125,72.6123198 570.706863,74.8868739 571.870605,76.4086914 C573.034348,77.9305089 574.739247,78.6914062 576.985352,78.6914062 C579.540703,78.6914062 581.957671,78.056647 584.236328,76.7871094 L584.236328,81.7919922 C583.210932,82.3942087 582.11638,82.8255195 580.952637,83.0859375 C579.788894,83.3463555 578.376961,83.4765625 576.716797,83.4765625 Z M600.642578,78.8378906 C602.042325,78.8378906 603.44205,78.6181663 604.841797,78.1787109 L604.841797,82.5 C604.207028,82.7766941 603.389165,83.0086254 602.388184,83.1958008 C601.387202,83.3829762 600.349615,83.4765625 599.275391,83.4765625 C593.839166,83.4765625 591.121094,80.6120078 591.121094,74.8828125 L591.121094,60.3320312 L587.43457,60.3320312 L587.43457,57.7929688 L591.389648,55.6933594 L593.342773,49.9804688 L596.882812,49.9804688 L596.882812,55.9863281 L604.573242,55.9863281 L604.573242,60.3320312 L596.882812,60.3320312 L596.882812,74.7851562 C596.882812,76.1686267 597.228675,77.1899381 597.92041,77.8491211 C598.612145,78.5083041 599.519526,78.8378906 600.642578,78.8378906 Z" id="redux-intl-connect-copy" fill="#333333"></path>
            <g id="react-intl-connect" transform="translate(35.000000, 12.000000)">
                <path d="M33.2278481,22.5836789 C33.2278481,18.1652101 36.811596,14.5833333 41.2347984,14.5833333 L96.9930497,14.5833333 C101.415166,14.5833333 105,18.1730117 105,22.5836789 L105,96.7345029 C105,101.152972 101.416252,104.734848 96.9930497,104.734848 L41.2347984,104.734848 C36.8126819,104.734848 33.2278481,101.14517 33.2278481,96.7345029 L33.2278481,22.5836789 Z M74.0316456,80.0757576 C85.2626006,80.0757576 94.3670886,70.9942607 94.3670886,59.7916667 C94.3670886,48.5890726 85.2626006,39.5075758 74.0316456,39.5075758 C62.8006905,39.5075758 53.6962025,48.5890726 53.6962025,59.7916667 C53.6962025,70.9942607 62.8006905,80.0757576 74.0316456,80.0757576 Z" id="Combined-Shape" fill="#CCCCCC"></path>
                <path d="M40.6708861,21.4772727 L90.3797468,21.4772727 L90.3797468,22.9063523 L40.6708861,22.9063523 L40.6708861,21.4772727 Z M40.6708861,28.2654005 L97.2911392,28.2654005 L97.2911392,29.69448 L40.6708861,29.69448 L40.6708861,28.2654005 Z M40.6708861,35.0535282 L97.2911392,35.0535282 L97.2911392,36.4826078 L40.6708861,36.4826078 L40.6708861,35.0535282 Z M40.6708861,41.841656 L56.8481013,41.841656 L56.8481013,43.2707355 L40.6708861,43.2707355 L40.6708861,41.841656 Z M91.1437975,41.841656 L97.2911392,41.841656 L97.2911392,43.2707355 L91.1437975,43.2707355 L91.1437975,41.841656 Z M40.6708861,48.6297838 L51.6713924,48.6297838 L51.6713924,50.0588633 L40.6708861,50.0588633 L40.6708861,48.6297838 Z M40.6708861,55.4179115 L48.7594937,55.4179115 L48.7594937,56.846991 L40.6708861,56.846991 L40.6708861,55.4179115 Z M40.6708861,62.2060393 L48.7594937,62.2060393 L48.7594937,63.6351188 L40.6708861,63.6351188 L40.6708861,62.2060393 Z M40.6708861,68.994167 L51.6713924,68.994167 L51.6713924,70.4232466 L40.6708861,70.4232466 L40.6708861,68.994167 Z M40.6708861,75.7822948 L56.8481013,75.7822948 L56.8481013,77.2113743 L40.6708861,77.2113743 L40.6708861,75.7822948 Z M93.0850633,75.7822948 L97.2911392,75.7822948 L97.2911392,77.2113743 L93.0850633,77.2113743 L93.0850633,75.7822948 Z M40.6708861,82.5704225 L97.2911392,82.5704225 L97.2911392,83.9995021 L40.6708861,83.9995021 L40.6708861,82.5704225 Z M40.6708861,89.3585503 L97.2911392,89.3585503 L97.2911392,90.7876298 L40.6708861,90.7876298 L40.6708861,89.3585503 Z M40.6708861,96.146678 L97.2911392,96.146678 L97.2911392,97.5757576 L40.6708861,97.5757576 L40.6708861,96.146678 Z" id="Combined-Shape" fill="#000000" opacity="0.1"></path>
                <path d="M93.5317197,27.0454545 L91.3537381,27.0454545 L91.3537381,26.6699959 L92.8048606,24.6476977 L91.4419996,24.6476977 L91.4419996,24.181611 L93.4901849,24.181611 L93.4901849,24.6062678 L92.0702136,26.5793679 L93.5317197,26.5793679 L93.5317197,27.0454545 Z M96.6805775,27.0454545 L96.0679391,27.0454545 L96.0679391,25.2846828 C96.0679391,25.0637221 96.0233761,24.8988671 95.9342489,24.790113 C95.8451217,24.6813589 95.7036452,24.6269827 95.5098151,24.6269827 C95.2536825,24.6269827 95.0654797,24.7033684 94.9452012,24.856142 C94.8249228,25.0089156 94.7647844,25.2648291 94.7647844,25.6238903 L94.7647844,27.0454545 L94.1547419,27.0454545 L94.1547419,23.0163944 L94.7647844,23.0163944 L94.7647844,24.0391957 C94.7647844,24.2031899 94.7544008,24.3784022 94.7336333,24.5648378 L94.7725722,24.5648378 C94.8556422,24.4267374 94.9711598,24.3197112 95.1191283,24.2437559 C95.2670968,24.1678007 95.4397241,24.1298236 95.6370154,24.1298236 C96.332727,24.1298236 96.6805775,24.4793851 96.6805775,25.1785186 L96.6805775,27.0454545 Z" id="zh" fill="#000000" opacity="0.2"></path>
                <path d="M68.9198734,53.2848485 L68.9198734,56.3181818 L73.3644304,56.3181818 C74.5925316,60.5473485 76.7855696,64.2515152 79.9435443,67.4598485 C76.9025316,70.0265152 73.0427848,71.8931818 68.3935443,73.0890152 L70.0310127,75.7723485 C74.7972152,74.4306818 78.8324051,72.3015152 82.1073418,69.4140152 C85.2068354,71.9806818 89.0958228,74.1390152 93.7743038,75.8890152 L95.4702532,73.2931818 C91.0256962,71.6598485 87.2829114,69.6765152 84.2711392,67.2848485 C86.9612658,64.3390152 89.0081013,60.6931818 90.4116456,56.3181818 L94.826962,56.3181818 L94.826962,53.2848485 L83.7740506,53.2848485 C82.8968354,51.3890152 81.9318987,49.7556818 80.8792405,48.3848485 L77.8089873,49.4931818 C78.8616456,50.6890152 79.7681013,51.9431818 80.4991139,53.2848485 L68.9198734,53.2848485 Z M76.288481,56.3181818 L87.2536709,56.3181818 C86.1132911,59.8473485 84.3881013,62.8806818 82.1073418,65.3890152 C79.4172152,62.7640152 77.4873418,59.7598485 76.288481,56.3181818 Z" id="文" fill="#CCCCCC"></path>
                <path d="M33.2278481,19.3550249 L71.0255637,3.58524207 L70.532857,90.0147964 L36.6259148,104.883478 L36.6259148,104.883478 C34.7492144,104.883478 33.2278481,102.258375 33.2278481,102.258375 L33.2278481,102.258375 L33.2278481,19.3550249 Z" id="Shadow" fill="#020202" opacity="0.1"></path>
                <path d="M0,8.00034557 C0,3.58187672 3.58374794,0 8.00695031,0 L63.7652016,0 C68.1873181,0 71.7721519,3.58967839 71.7721519,8.00034557 L71.7721519,82.1511696 C71.7721519,86.5696384 68.188404,90.1515152 63.7652016,90.1515152 L8.00695031,90.1515152 C3.58483376,90.1515152 0,86.5618368 0,82.1511696 L0,8.00034557 Z M40.8037975,65.4924242 C52.0347525,65.4924242 61.1392405,56.4109274 61.1392405,45.2083333 C61.1392405,34.0057393 52.0347525,24.9242424 40.8037975,24.9242424 C29.5728424,24.9242424 20.4683544,34.0057393 20.4683544,45.2083333 C20.4683544,56.4109274 29.5728424,65.4924242 40.8037975,65.4924242 Z" id="Combined-Shape" fill="#764ABC"></path>
                <path d="M7.44303797,6.89393939 L57.1518987,6.89393939 L57.1518987,8.32301892 L7.44303797,8.32301892 L7.44303797,6.89393939 Z M7.44303797,13.6820672 L64.0632911,13.6820672 L64.0632911,15.1111467 L7.44303797,15.1111467 L7.44303797,13.6820672 Z M7.44303797,20.4701949 L64.0632911,20.4701949 L64.0632911,21.8992744 L7.44303797,21.8992744 L7.44303797,20.4701949 Z M7.44303797,27.2583227 L23.6202532,27.2583227 L23.6202532,28.6874022 L7.44303797,28.6874022 L7.44303797,27.2583227 Z M57.9159494,27.2583227 L64.0632911,27.2583227 L64.0632911,28.6874022 L57.9159494,28.6874022 L57.9159494,27.2583227 Z M7.44303797,34.0464504 L18.4435443,34.0464504 L18.4435443,35.4755299 L7.44303797,35.4755299 L7.44303797,34.0464504 Z M7.44303797,40.8345782 L15.5316456,40.8345782 L15.5316456,42.2636577 L7.44303797,42.2636577 L7.44303797,40.8345782 Z M7.44303797,47.6227059 L15.5316456,47.6227059 L15.5316456,49.0517855 L7.44303797,49.0517855 L7.44303797,47.6227059 Z M7.44303797,54.4108337 L18.4435443,54.4108337 L18.4435443,55.8399132 L7.44303797,55.8399132 L7.44303797,54.4108337 Z M7.44303797,61.1989614 L23.6202532,61.1989614 L23.6202532,62.628041 L7.44303797,62.628041 L7.44303797,61.1989614 Z M59.8572152,61.1989614 L64.0632911,61.1989614 L64.0632911,62.628041 L59.8572152,62.628041 L59.8572152,61.1989614 Z M7.44303797,67.9870892 L64.0632911,67.9870892 L64.0632911,69.4161687 L7.44303797,69.4161687 L7.44303797,67.9870892 Z M7.44303797,74.775217 L64.0632911,74.775217 L64.0632911,76.2042965 L7.44303797,76.2042965 L7.44303797,74.775217 Z M7.44303797,81.5633447 L64.0632911,81.5633447 L64.0632911,82.9924242 L7.44303797,82.9924242 L7.44303797,81.5633447 Z" id="Combined-Shape" fill="#000000" opacity="0.14"></path>
                <path d="M59.1076691,12.5139086 C58.6611677,12.5139086 58.3120192,12.3840098 58.0602131,12.1242084 C57.8084071,11.8644069 57.6825059,11.5066459 57.6825059,11.0509144 C57.6825059,10.5830992 57.7993214,10.2154123 58.0329559,9.94784268 C58.2665904,9.68027309 58.5876166,9.54649029 58.9960443,9.54649029 C59.3750513,9.54649029 59.6744451,9.66128456 59.8942346,9.89087654 C60.114024,10.1204685 60.2239171,10.4363685 60.2239171,10.8385861 L60.2239171,11.1674361 L58.3107199,11.1674361 C58.3193731,11.4453632 58.3946542,11.6589841 58.5365655,11.8083052 C58.6784768,11.9576263 58.8783611,12.0322857 59.1362243,12.0322857 C59.3058256,12.0322857 59.4637428,12.0163181 59.6099807,11.9843824 C59.7562186,11.9524467 59.9132705,11.8993651 60.0811412,11.8251361 L60.0811412,12.3197058 C59.9323074,12.3904823 59.7817452,12.440543 59.6294502,12.4698893 C59.4771551,12.4992357 59.3032298,12.5139086 59.1076691,12.5139086 Z M58.9960443,10.0073982 C58.8022142,10.0073982 58.6468929,10.0686794 58.5300757,10.1912435 C58.4132584,10.3138076 58.3436018,10.4924724 58.3211036,10.7272431 L59.6242583,10.7272431 C59.6207971,10.4907461 59.5636873,10.3116498 59.4529272,10.1899488 C59.3421672,10.0682478 59.1898744,10.0073982 58.9960443,10.0073982 Z M63.4428649,12.4621212 L62.8302265,12.4621212 L62.8302265,10.7013494 C62.8302265,10.4803887 62.7856635,10.3155338 62.6965363,10.2067797 C62.6074091,10.0980256 62.4659325,10.0436494 62.2721025,10.0436494 C62.0142392,10.0436494 61.8256038,10.1196035 61.7061907,10.271514 C61.5867775,10.4234244 61.5270718,10.6780433 61.5270718,11.0353782 L61.5270718,12.4621212 L60.9170293,12.4621212 L60.9170293,9.5982777 L61.3946796,9.5982777 L61.4803451,9.97373639 L61.5114962,9.97373639 C61.5980275,9.8373622 61.7209001,9.7320622 61.8801177,9.65783321 C62.0393353,9.58360423 62.2158564,9.54649029 62.4096865,9.54649029 C63.0984756,9.54649029 63.4428649,9.89605178 63.4428649,10.5951853 L63.4428649,12.4621212 Z" id="en" fill="#000000" opacity="0.3"></path>
                <path d="M54.3784118,65.4924242 L51.5358732,57.6077918 L40.652455,57.6077918 L37.8683248,65.4924242 L32.9620253,65.4924242 L43.6118102,36.9834576 L48.6738652,36.9834576 L59.3236501,65.4924242 L54.3784118,65.4924242 Z M50.3092984,53.6072147 L47.6419848,45.8779445 C47.4472894,45.3600678 47.1779648,44.5444244 46.8340029,43.4309896 C46.4900411,42.3175548 46.2531652,41.5019113 46.1233683,40.9840347 C45.7729166,42.5765054 45.2602264,44.3178394 44.5852823,46.2080892 L42.015316,53.6072147 L50.3092984,53.6072147 Z" id="A" fill="#764ABC"></path>
            </g>
        </g>
    </g>
</svg>